<?xml version="1.0" encoding="UTF-8" standalone="no"?>
<!-- Created with Inkscape (http://www.inkscape.org/) -->

<svg
   version="1.1"
   id="svg87158"
   width="372.19733"
   height="173.22861"
   viewBox="0 0 372.19733 173.22861"
   sodipodi:docname="fig1-2.svg"
   inkscape:version="1.2.1 (0f2f062aeb, 2022-09-21, custom)"
   xmlns:inkscape="http://www.inkscape.org/namespaces/inkscape"
   xmlns:sodipodi="http://sodipodi.sourceforge.net/DTD/sodipodi-0.dtd"
   xmlns="http://www.w3.org/2000/svg"
   xmlns:svg="http://www.w3.org/2000/svg">
  <defs
     id="defs87162" />
  <sodipodi:namedview
     id="namedview87160"
     pagecolor="#505050"
     bordercolor="#eeeeee"
     borderopacity="1"
     inkscape:showpageshadow="0"
     inkscape:pageopacity="0"
     inkscape:pagecheckerboard="0"
     inkscape:deskcolor="#505050"
     showgrid="false"
     inkscape:zoom="1.4476237"
     inkscape:cx="144.71993"
     inkscape:cy="137.81206"
     inkscape:window-width="1680"
     inkscape:window-height="924"
     inkscape:window-x="0"
     inkscape:window-y="27"
     inkscape:window-maximized="1"
     inkscape:current-layer="g87164" />
  <g
     id="g87164"
     inkscape:groupmode="layer"
     inkscape:label="Coussy - 2004 - Poromechanics - Wiley2"
     transform="matrix(1.3333333,0,0,-1.3333333,-125.664,284.44953)">
    <path
       d="m 122.991,112.392 v 31.52099"
       style="fill:none;stroke:#000000;stroke-width:0.5;stroke-linecap:round;stroke-linejoin:round;stroke-miterlimit:10;stroke-dasharray:none;stroke-opacity:1"
       id="path87800" />
    <path
       d="m 125.492,141.60699 -2.49301,4.319 -2.49399,-4.319 h 4.987"
       style="fill:#000000;fill-opacity:1;fill-rule:nonzero;stroke:none"
       id="path87802" />
    <path
       d="M 122.991,112.392 97.12199,92.98399"
       style="fill:none;stroke:#000000;stroke-width:0.5;stroke-linecap:round;stroke-linejoin:round;stroke-miterlimit:10;stroke-dasharray:none;stroke-opacity:1"
       id="path87804" />
    <path
       d="m 96.203,95.422 -1.955,-4.586 4.94901,0.599 -2.99401,3.987"
       style="fill:#000000;fill-opacity:1;fill-rule:nonzero;stroke:none"
       id="path87806" />
    <path
       d="M 122.991,112.392 H 155.33"
       style="fill:none;stroke:#000000;stroke-width:0.5;stroke-linecap:round;stroke-linejoin:round;stroke-miterlimit:10;stroke-dasharray:none;stroke-opacity:1"
       id="path87808" />
    <path
       d="m 154.601,109.89101 4.31801,2.49398 -4.31801,2.49302 v -4.987"
       style="fill:#000000;fill-opacity:1;fill-rule:nonzero;stroke:none"
       id="path87810" />
    <text
       xml:space="preserve"
       transform="matrix(1,0,0,-1,152.21201,103.132)"
       style="font-style:italic;font-variant:normal;font-weight:bold;font-size:8px;font-family:Times;-inkscape-font-specification:Times-BoldItalic;writing-mode:lr-tb;fill:#000000;fill-opacity:1;fill-rule:nonzero;stroke:none"
       id="text87814"><tspan
         x="0"
         y="0"
         id="tspan87812">e</tspan></text>
    <text
       xml:space="preserve"
       transform="matrix(1,0,0,-1,155.76401,101.132)"
       style="font-variant:normal;font-weight:normal;font-size:6px;font-family:Times;-inkscape-font-specification:Times-Roman;writing-mode:lr-tb;fill:#000000;fill-opacity:1;fill-rule:nonzero;stroke:none"
       id="text87818"><tspan
         x="0"
         y="0"
         id="tspan87816">2</tspan></text>
    <text
       xml:space="preserve"
       transform="matrix(1,0,0,-1,128.638,140.033)"
       style="font-style:italic;font-variant:normal;font-weight:bold;font-size:8px;font-family:Times;-inkscape-font-specification:Times-BoldItalic;writing-mode:lr-tb;fill:#000000;fill-opacity:1;fill-rule:nonzero;stroke:none"
       id="text87822"><tspan
         x="0"
         y="0"
         id="tspan87820">e</tspan></text>
    <text
       xml:space="preserve"
       transform="matrix(1,0,0,-1,132.19,138.033)"
       style="font-variant:normal;font-weight:normal;font-size:6px;font-family:Times;-inkscape-font-specification:Times-Roman;writing-mode:lr-tb;fill:#000000;fill-opacity:1;fill-rule:nonzero;stroke:none"
       id="text87826"><tspan
         x="0"
         y="0"
         id="tspan87824">3</tspan></text>
    <text
       xml:space="preserve"
       transform="matrix(1,0,0,-1,98.44,85.4157)"
       style="font-style:italic;font-variant:normal;font-weight:bold;font-size:8px;font-family:Times;-inkscape-font-specification:Times-BoldItalic;writing-mode:lr-tb;fill:#000000;fill-opacity:1;fill-rule:nonzero;stroke:none"
       id="text87830"><tspan
         x="0"
         y="0"
         id="tspan87828">e</tspan></text>
    <text
       xml:space="preserve"
       transform="matrix(1,0,0,-1,101.992,83.4157)"
       style="font-variant:normal;font-weight:normal;font-size:6px;font-family:Times;-inkscape-font-specification:Times-Roman;writing-mode:lr-tb;fill:#000000;fill-opacity:1;fill-rule:nonzero;stroke:none"
       id="text87834"><tspan
         x="0"
         y="0"
         id="tspan87832">1</tspan></text>
    <path
       d="m 146.368,139.17101 -0.528,0.23999 -0.478,0.23899 -0.815,0.47901 -0.71801,0.52701 -0.623,0.526 -0.57499,0.57599 -1.24601,1.341 -0.76599,0.76601 -0.66999,1.72499 -0.336,0.623 -0.67002,1.15001 -0.28799,0.62199 -0.192,0.479 -0.191,0.527 -0.24,0.57499 -0.192,0.57502 -0.191,0.52699 -0.239,0.718 -0.048,0.048 v 0.048 l 0.19099,2.683 0.24001,2.87401 0.33501,2.97 0.23999,1.485 0.287,1.485 0.336,1.485 0.38299,1.48501 0.431,1.43699 0.52701,1.39 0.575,1.38899 0.67,1.293 0.718,1.246 0.815,1.198 0.384,1.00501 0.478,0.95801 0.48,0.91099 0.526,0.862 1.246,1.677 1.341,1.676 0.336,0.431 0.287,0.52701 0.48,1.054 0.287,0.47898 0.33499,0.431 0.38301,0.336 0.47899,0.23902 1.054,0.33499 1.10201,0.336 2.203,0.81401 1.10201,0.43199 1.05499,0.526 1.005,0.52699 0.863,0.623 3.257,2.347 1.62801,1.15001 1.677,1.054 1.67698,1.006 1.67701,0.95799 1.72399,0.91001 1.77302,0.862 1.77198,0.76699 1.82102,0.767 1.86799,0.67002 1.868,0.623 1.916,0.52598 2.01199,0.528 2.01201,0.431 2.06,0.33501 4.78999,-0.144 4.83901,-0.048 4.742,-0.14301 2.396,-0.096 2.34601,-0.144 0.528,-0.096 0.47898,-0.14299 0.47901,-0.192 0.43001,-0.239 0.86299,-0.623 0.766,-0.767 0.719,-0.81401 0.71899,-0.862 0.71801,-0.81498 0.719,-0.76601 0.862,-0.718 0.957,-0.62399 0.959,-0.57401 1.006,-0.52701 1.006,-0.47899 1.00599,-0.527 0.95801,-0.575 0.95799,-0.67101 0.57502,-0.47898 0.528,-0.38302 0.42999,-0.33499 0.33501,-0.28801 0.28799,-0.19099 0.24001,-0.192 0.334,-0.33499 -0.095,0.048 -0.192,0.048 -0.23899,0.143 -0.28701,0.144 -0.24,0.096 -0.192,0.048 -0.048,-0.048 0.048,-0.048 0.14399,-0.28801 0.71901,-0.71801 0.38201,-0.33499 0.43199,-0.431 0.862,-0.767 0.91099,-0.671 1.86801,-1.293 2.01101,-1.198 2.013,-1.15001 2.05999,-1.101 1.96399,-1.14999 1.916,-1.29401 0.91001,-0.66999 0.862,-0.719 0.527,-1.38901 0.575,-1.43699 0.67,-1.485 0.71899,-1.485 0.76702,-1.437 0.76599,-1.38901 0.86301,-1.34199 0.86099,-1.245 0.336,-1.43699 0.574,-2.97001 0.19299,-0.76699 0.19101,-0.71801 0.38401,-1.054 0.38299,-1.00599 1.724,-4.12001 0.67,-2.10801 -0.047,-1.10099 -0.049,-1.198 -0.14202,-3.83299 -0.14499,-1.34101 -0.143,-1.293 -0.239,-1.293 -0.336,-1.24701 -0.431,-1.19699 -0.526,-1.149 -0.672,-1.007 -0.815,-0.957 -1.006,-0.81501 -1.149,-0.66999 -0.62201,-0.288 -0.71899,-0.24 -0.959,-0.71801 -0.91,-0.81399 -0.90999,-0.76801 -1.00601,-0.66899 -0.57399,-0.336 -0.62301,-0.28801 -1.341,-0.47799 -1.533,-0.43199 -1.53299,-0.28701 -1.582,-0.28801 -1.53202,-0.28698 -1.43699,-0.23902 -1.34101,-0.28799 -1.15098,-0.33499 -1.149,-0.431 -2.49102,-0.95801 -1.24499,-0.43201 -1.246,-0.38199 -1.198,-0.33599 -1.19699,-0.14402 -3.78501,-0.28698 -3.832,-0.28801 -3.113,0.192 -3.019,0.192 -2.97,0.143 -2.874,0.144 -5.653,0.288 -5.60501,0.19101 -2.82599,0.14399 -2.875,0.048 -2.921,0.095 -3.01801,0.096 -3.11399,0.048 -3.161,0.096 -6.80299,0.095 -1.53301,0.576 -1.43699,0.71801 -1.43702,0.81498 -1.34199,0.862 -1.38899,0.86202 -1.43601,0.81498 -1.438,0.71901 -1.53301,0.57399 -1.34199,1.724 -0.622,0.81501 -0.57499,0.81401 -0.52701,0.86299 -0.383,0.862 -0.24,0.958 -0.095,1.05401"
       style="fill:#cccccc;fill-opacity:1;fill-rule:nonzero;stroke:none"
       id="path87836" />
    <path
       d="m 146.368,139.17101 -0.528,0.23999 -0.478,0.23899 -0.815,0.47901 -0.71801,0.52701 -0.623,0.526 -0.57499,0.57599 -1.24601,1.341 -0.76599,0.76601 -0.66999,1.72499 -0.336,0.623 -0.67002,1.15001 -0.28799,0.62199 -0.192,0.479 -0.191,0.527 -0.24,0.57499 -0.192,0.57502 -0.191,0.52699 -0.239,0.718 -0.048,0.048 v 0.048 l 0.19099,2.683 0.24001,2.87401 0.33501,2.97 0.23999,1.485 0.287,1.485 0.336,1.485 0.38299,1.48501 0.431,1.43699 0.52701,1.39 0.575,1.38899 0.67,1.293 0.718,1.246 0.815,1.198 0.384,1.00501 0.478,0.95801 0.48,0.91099 0.526,0.862 1.246,1.677 1.341,1.676 0.336,0.431 0.287,0.52701 0.48,1.054 0.287,0.47898 0.33499,0.431 0.38301,0.336 0.47899,0.23902 1.054,0.33499 1.10201,0.336 2.203,0.81401 1.10201,0.43199 1.05499,0.526 1.005,0.52699 0.863,0.623 3.257,2.347 1.62801,1.15001 1.677,1.054 1.67698,1.006 1.67701,0.95799 1.72399,0.91001 1.77302,0.862 1.77198,0.76699 1.82102,0.767 1.86799,0.67002 1.868,0.623 1.916,0.52598 2.01199,0.528 2.01201,0.431 2.06,0.33501 4.78999,-0.144 4.83901,-0.048 4.742,-0.14301 2.396,-0.096 2.34601,-0.144 0.528,-0.096 0.47898,-0.14299 0.47901,-0.192 0.43001,-0.239 0.86299,-0.623 0.766,-0.767 0.719,-0.81401 0.71899,-0.862 0.71801,-0.81498 0.719,-0.76601 0.862,-0.718 0.957,-0.62399 0.959,-0.57401 1.006,-0.52701 1.006,-0.47899 1.00599,-0.527 0.95801,-0.575 0.95799,-0.67101 0.57502,-0.47898 0.528,-0.38302 0.42999,-0.33499 0.33501,-0.28801 0.28799,-0.19099 0.24001,-0.192 0.334,-0.33499 -0.095,0.048 -0.192,0.048 -0.23899,0.143 -0.28701,0.144 -0.24,0.096 -0.192,0.048 -0.048,-0.048 0.048,-0.048 0.14399,-0.28801 0.71901,-0.71801 0.38201,-0.33499 0.43199,-0.431 0.862,-0.767 0.91099,-0.671 1.86801,-1.293 2.01101,-1.198 2.013,-1.15001 2.05999,-1.101 1.96399,-1.14999 1.916,-1.29401 0.91001,-0.66999 0.862,-0.719 0.527,-1.38901 0.575,-1.43699 0.67,-1.485 0.71899,-1.485 0.76702,-1.437 0.76599,-1.38901 0.86301,-1.34199 0.86099,-1.245 0.336,-1.43699 0.574,-2.97001 0.19299,-0.76699 0.19101,-0.71801 0.38401,-1.054 0.38299,-1.00599 1.724,-4.12001 0.67,-2.10801 -0.047,-1.10099 -0.049,-1.198 -0.14202,-3.83299 -0.14499,-1.34101 -0.143,-1.293 -0.239,-1.293 -0.336,-1.24701 -0.431,-1.19699 -0.526,-1.149 -0.672,-1.007 -0.815,-0.957 -1.006,-0.81501 -1.149,-0.66999 -0.62201,-0.288 -0.71899,-0.24 -0.959,-0.71801 -0.91,-0.81399 -0.90999,-0.76801 -1.00601,-0.66899 -0.57399,-0.336 -0.62301,-0.28801 -1.341,-0.47799 -1.533,-0.43199 -1.53299,-0.28701 -1.582,-0.28801 -1.53202,-0.28698 -1.43699,-0.23902 -1.34101,-0.28799 -1.15098,-0.33499 -1.149,-0.431 -2.49102,-0.95801 -1.24499,-0.43201 -1.246,-0.38199 -1.198,-0.33599 -1.19699,-0.14402 -3.78501,-0.28698 -3.832,-0.28801 -3.113,0.192 -3.019,0.192 -2.97,0.143 -2.874,0.144 -5.653,0.288 -5.60501,0.19101 -2.82599,0.14399 -2.875,0.048 -2.921,0.095 -3.01801,0.096 -3.11399,0.048 -3.161,0.096 -6.80299,0.095 -1.53301,0.576 -1.43699,0.71801 -1.43702,0.81498 -1.34199,0.862 -1.38899,0.86202 -1.43601,0.81498 -1.438,0.71901 -1.53301,0.57399 -1.34199,1.724 -0.622,0.81501 -0.57499,0.81401 -0.52701,0.86299 -0.383,0.862 -0.24,0.958 -0.095,1.05401 z"
       style="fill:none;stroke:#000000;stroke-width:0.5;stroke-linecap:round;stroke-linejoin:round;stroke-miterlimit:10;stroke-dasharray:none;stroke-opacity:1"
       id="path87838" />
    <path
       d="m 254.104,153.063 -0.958,0.86299 -0.383,0.38201 -0.336,0.431 -0.623,0.767 -0.526,0.76699 -0.431,0.76601 -0.43201,0.814 -0.52699,0.91101 -0.574,1.00599 -0.049,0.47899 v 0.47901 l -0.047,0.479 -0.049,0.431 -0.19101,0.71899 -0.191,0.67 -0.14399,0.71901 -0.14301,0.67 -0.048,0.52699 -0.048,0.57502 -0.049,0.623 -0.047,0.623 v 0.57499 l -0.049,0.431 v 0.43 l 0.528,1.19799 0.575,1.24601 1.24499,2.587 1.43801,2.58699 0.765,1.293 0.81399,1.29401 0.86402,1.24499 0.957,1.19701 0.959,1.14999 1.05299,1.10201 1.10201,1.054 1.19799,0.95799 1.245,0.86202 1.29401,0.76599 0.76599,0.767 0.81401,0.71901 0.86299,0.66999 0.91,0.575 1.96401,1.10201 2.05999,1.00599 0.528,0.28701 0.478,0.33599 0.91,0.766 0.47899,0.38301 0.47901,0.23999 0.576,0.19101 h 0.622 l 1.24501,-0.14301 1.34199,-0.096 1.388,-0.096 1.342,-0.096 h 1.389 l 1.342,0.048 1.246,0.096 1.19699,0.23999 2.20301,0.47901 2.20401,0.431 2.25099,0.335 2.20401,0.336 2.20399,0.239 2.25099,0.24001 2.20401,0.14299 4.551,0.096 2.25101,-0.048 2.29998,-0.143 2.34801,-0.19201 2.34599,-0.23999 2.347,-0.38301 2.39602,-0.38299 2.44299,-0.527 5.317,-2.05999 5.31799,-2.01201 5.26902,-2.06 2.63499,-1.054 2.58701,-1.10201 0.57399,-0.28698 0.48001,-0.33501 0.47898,-0.384 0.38302,-0.383 0.71798,-0.95801 0.62401,-1.00599 0.526,-1.054 0.47901,-1.101 0.528,-1.054 0.57399,-1.00701 0.71901,-1.05299 0.86099,-0.95801 0.863,-0.90999 0.958,-0.91101 1.869,-1.724 0.91,-0.95799 0.814,-0.959 0.528,-0.67 0.43001,-0.57499 0.33499,-0.47901 0.287,-0.38301 0.24001,-0.336 0.19198,-0.28698 0.14301,-0.192 0.096,-0.095 v -0.14399 l -0.23902,0.239 -0.239,0.192 -0.47999,0.47899 -0.191,0.096 h -0.048 v -0.096 l 0.048,-0.096 0.048,-0.19101 0.14301,-0.23999 0.19099,-0.335 0.192,-0.383 0.336,-0.48 0.33602,-0.574 0.71798,-1.054 0.71801,-1.006 0.815,-1.00599 0.862,-0.95801 1.82,-1.916 3.78499,-3.78501 1.86801,-1.916 0.862,-0.95799 1.629,-2.01199 0.719,-1.00601 0.095,-1.53299 0.192,-1.58101 0.192,-1.629 0.33501,-1.62801 0.33499,-1.67698 0.43201,-1.62902 0.47799,-1.58099 0.528,-1.48399 -0.096,-1.53402 -0.38398,-2.96899 -0.048,-0.767 v -0.766 l 0.048,-1.10199 0.097,-1.10302 0.23799,-2.29799 0.24,-2.25199 0.096,-1.15001 v -1.101 l -0.432,-1.006 -0.47801,-1.102 -0.43199,-1.15 -1.052,-2.39599 -0.577,-1.14901 -0.62201,-1.197 -0.71899,-1.103 -0.76601,-1.005 -0.90999,-0.959 -0.957,-0.814 -1.10299,-0.67 -1.24501,-0.527 -0.67099,-0.23999 -0.67101,-0.14301 -0.766,-0.097 -0.767,-0.048 h -0.814 l -0.862,0.048 -1.34199,-0.287 -1.293,-0.383 -1.29302,-0.336 -0.67099,-0.143 -0.67,-0.096 -0.719,-0.048 -0.814,-0.048 -1.677,0.096 -1.773,0.239 -3.736,0.67099 -1.82,0.38401 -1.725,0.335 -1.581,0.28701 -1.341,0.14399 -2.97099,0.192 -1.53301,0.048 -1.58,0.095 -1.485,0.096 -1.437,0.239 -1.389,0.336 -4.361,1.24499 -4.358,1.293 -3.401,1.43801 -3.354,1.39 -3.209,1.33999 -3.16201,1.29401 -6.22799,2.53799 -6.179,2.49201 -6.32399,2.491 -3.20801,1.294 -3.354,1.293 -3.40101,1.341 -3.59298,1.34101 -3.69001,1.38899 -3.832,1.485 -1.533,1.151 -1.341,1.245 -1.294,1.341 -2.49,2.68201 -1.293,1.34199 -1.342,1.246 -1.533,1.14901 -0.91,2.15599 -0.47901,1.00599 -0.33499,1.00602 -0.287,1.00599 -0.144,0.95799 v 0.52701 l 0.048,0.47901 0.096,0.52699 0.143,0.479"
       style="fill:#cccccc;fill-opacity:1;fill-rule:nonzero;stroke:none"
       id="path87840" />
    <path
       d="m 254.104,153.063 -0.958,0.86299 -0.383,0.38201 -0.336,0.431 -0.623,0.767 -0.526,0.76699 -0.431,0.76601 -0.43201,0.814 -0.52699,0.91101 -0.574,1.00599 -0.049,0.47899 v 0.47901 l -0.047,0.479 -0.049,0.431 -0.19101,0.71899 -0.191,0.67 -0.14399,0.71901 -0.14301,0.67 -0.048,0.52699 -0.048,0.57502 -0.049,0.623 -0.047,0.623 v 0.57499 l -0.049,0.431 v 0.43 l 0.528,1.19799 0.575,1.24601 1.24499,2.587 1.43801,2.58699 0.765,1.293 0.81399,1.29401 0.86402,1.24499 0.957,1.19701 0.959,1.14999 1.05299,1.10201 1.10201,1.054 1.19799,0.95799 1.245,0.86202 1.29401,0.76599 0.76599,0.767 0.81401,0.71901 0.86299,0.66999 0.91,0.575 1.96401,1.10201 2.05999,1.00599 0.528,0.28701 0.478,0.33599 0.91,0.766 0.47899,0.38301 0.47901,0.23999 0.576,0.19101 h 0.622 l 1.24501,-0.14301 1.34199,-0.096 1.388,-0.096 1.342,-0.096 h 1.389 l 1.342,0.048 1.246,0.096 1.19699,0.23999 2.20301,0.47901 2.20401,0.431 2.25099,0.335 2.20401,0.336 2.20399,0.239 2.25099,0.24001 2.20401,0.14299 4.551,0.096 2.25101,-0.048 2.29998,-0.143 2.34801,-0.19201 2.34599,-0.23999 2.347,-0.38301 2.39602,-0.38299 2.44299,-0.527 5.317,-2.05999 5.31799,-2.01201 5.26902,-2.06 2.63499,-1.054 2.58701,-1.10201 0.57399,-0.28698 0.48001,-0.33501 0.47898,-0.384 0.38302,-0.383 0.71798,-0.95801 0.62401,-1.00599 0.526,-1.054 0.47901,-1.101 0.528,-1.054 0.57399,-1.00701 0.71901,-1.05299 0.86099,-0.95801 0.863,-0.90999 0.958,-0.91101 1.869,-1.724 0.91,-0.95799 0.814,-0.959 0.528,-0.67 0.43001,-0.57499 0.33499,-0.47901 0.287,-0.38301 0.24001,-0.336 0.19198,-0.28698 0.14301,-0.192 0.096,-0.095 v -0.14399 l -0.23902,0.239 -0.239,0.192 -0.47999,0.47899 -0.191,0.096 h -0.048 v -0.096 l 0.048,-0.096 0.048,-0.19101 0.14301,-0.23999 0.19099,-0.335 0.192,-0.383 0.336,-0.48 0.33602,-0.574 0.71798,-1.054 0.71801,-1.006 0.815,-1.00599 0.862,-0.95801 1.82,-1.916 3.78499,-3.78501 1.86801,-1.916 0.862,-0.95799 1.629,-2.01199 0.719,-1.00601 0.095,-1.53299 0.192,-1.58101 0.192,-1.629 0.33501,-1.62801 0.33499,-1.67698 0.43201,-1.62902 0.47799,-1.58099 0.528,-1.48399 -0.096,-1.53402 -0.38398,-2.96899 -0.048,-0.767 v -0.766 l 0.048,-1.10199 0.097,-1.10302 0.23799,-2.29799 0.24,-2.25199 0.096,-1.15001 v -1.101 l -0.432,-1.006 -0.47801,-1.102 -0.43199,-1.15 -1.052,-2.39599 -0.577,-1.14901 -0.62201,-1.197 -0.71899,-1.103 -0.76601,-1.005 -0.90999,-0.959 -0.957,-0.814 -1.10299,-0.67 -1.24501,-0.527 -0.67099,-0.23999 -0.67101,-0.14301 -0.766,-0.097 -0.767,-0.048 h -0.814 l -0.862,0.048 -1.34199,-0.287 -1.293,-0.383 -1.29302,-0.336 -0.67099,-0.143 -0.67,-0.096 -0.719,-0.048 -0.814,-0.048 -1.677,0.096 -1.773,0.239 -3.736,0.67099 -1.82,0.38401 -1.725,0.335 -1.581,0.28701 -1.341,0.14399 -2.97099,0.192 -1.53301,0.048 -1.58,0.095 -1.485,0.096 -1.437,0.239 -1.389,0.336 -4.361,1.24499 -4.358,1.293 -3.401,1.43801 -3.354,1.39 -3.209,1.33999 -3.16201,1.29401 -6.22799,2.53799 -6.179,2.49201 -6.32399,2.491 -3.20801,1.294 -3.354,1.293 -3.40101,1.341 -3.59298,1.34101 -3.69001,1.38899 -3.832,1.485 -1.533,1.151 -1.341,1.245 -1.294,1.341 -2.49,2.68201 -1.293,1.34199 -1.342,1.246 -1.533,1.14901 -0.91,2.15599 -0.47901,1.00599 -0.33499,1.00602 -0.287,1.00599 -0.144,0.95799 v 0.52701 l 0.048,0.47901 0.096,0.52699 0.143,0.479 z"
       style="fill:none;stroke:#000000;stroke-width:0.5;stroke-linecap:round;stroke-linejoin:round;stroke-miterlimit:10;stroke-dasharray:none;stroke-opacity:1"
       id="path87842" />
    <path
       d="m 122.991,112.392 50.093,47.82699"
       style="fill:none;stroke:#000000;stroke-width:0.5;stroke-linecap:round;stroke-linejoin:round;stroke-miterlimit:10;stroke-dasharray:none;stroke-opacity:1"
       id="path87844" />
    <path
       d="m 173.358,158.498 2.918,4.793 -4.92399,-2.692 2.00599,-2.101"
       style="fill:#000000;fill-opacity:1;fill-rule:nonzero;stroke:none"
       id="path87846" />
    <path
       d="m 122.991,112.392 161.78199,39.869"
       style="fill:none;stroke:#000000;stroke-width:0.5;stroke-linecap:round;stroke-linejoin:round;stroke-miterlimit:10;stroke-dasharray:none;stroke-opacity:1"
       id="path87848" />
    <path
       d="m 284.15401,150.631 4.916,2.707 -5.61,0.113 0.694,-2.82"
       style="fill:#000000;fill-opacity:1;fill-rule:nonzero;stroke:none"
       id="path87850" />
    <text
       xml:space="preserve"
       transform="matrix(1,0,0,-1,269.578,159.255)"
       style="font-style:italic;font-variant:normal;font-weight:bold;font-size:8px;font-family:Times;-inkscape-font-specification:Times-BoldItalic;writing-mode:lr-tb;fill:#000000;fill-opacity:1;fill-rule:nonzero;stroke:none"
       id="text87854"><tspan
         x="0"
         y="0"
         id="tspan87852">x</tspan></text>
    <text
       xml:space="preserve"
       transform="matrix(1,0,0,-1,275.578,159.255)"
       style="font-variant:normal;font-weight:normal;font-size:8px;font-family:Symbol;-inkscape-font-specification:Symbol;writing-mode:lr-tb;fill:#000000;fill-opacity:1;fill-rule:nonzero;stroke:none"
       id="text87858"><tspan
         x="0"
         y="0"
         id="tspan87856">=</tspan></text>
    <text
       xml:space="preserve"
       transform="matrix(1,0,0,-1,281.97,159.255)"
       style="font-style:italic;font-variant:normal;font-weight:bold;font-size:8px;font-family:Times;-inkscape-font-specification:Times-BoldItalic;writing-mode:lr-tb;fill:#000000;fill-opacity:1;fill-rule:nonzero;stroke:none"
       id="text87862"><tspan
         x="0"
         y="0"
         id="tspan87860">x</tspan></text>
    <text
       xml:space="preserve"
       transform="matrix(1,0,0,-1,285.97,159.255)"
       style="font-style:italic;font-variant:normal;font-size:8px;font-family:Times;-inkscape-font-specification:Times-Italic;writing-mode:lr-tb;fill:#000000;fill-opacity:1;fill-rule:nonzero;stroke:none"
       id="text87866"><tspan
         x="0"
         y="0"
         id="tspan87864">(</tspan></text>
    <text
       xml:space="preserve"
       transform="matrix(1,0,0,-1,288.63392,159.255)"
       style="font-style:italic;font-variant:normal;font-weight:bold;font-size:8px;font-family:Times;-inkscape-font-specification:Times-BoldItalic;writing-mode:lr-tb;fill:#000000;fill-opacity:1;fill-rule:nonzero;stroke:none"
       id="text87870"><tspan
         x="0"
         y="0"
         id="tspan87868">X</tspan></text>
    <text
       xml:space="preserve"
       transform="matrix(1,0,0,-1,293.97,159.255)"
       style="font-style:italic;font-variant:normal;font-size:8px;font-family:Times;-inkscape-font-specification:Times-Italic;writing-mode:lr-tb;fill:#000000;fill-opacity:1;fill-rule:nonzero;stroke:none"
       id="text87874"><tspan
         x="0 2.8000801 5.0241599"
         y="0"
         sodipodi:role="line"
         id="tspan87872">,t)</tspan></text>
    <text
       xml:space="preserve"
       transform="matrix(1,0,0,-1,162.33,159.147)"
       style="font-style:italic;font-variant:normal;font-weight:bold;font-size:8px;font-family:Times;-inkscape-font-specification:Times-BoldItalic;writing-mode:lr-tb;fill:#000000;fill-opacity:1;fill-rule:nonzero;stroke:none"
       id="text87878"><tspan
         x="0"
         y="0"
         id="tspan87876">X</tspan></text>
    <path
       d="m 194.224,165.08701 v -1.198 H 178.08099 V 161.494 H 194.224 v -1.197 l 5.41299,2.395 z"
       style="fill:#000000;fill-opacity:1;fill-rule:evenodd;stroke:#000000;stroke-width:0.5;stroke-linecap:butt;stroke-linejoin:miter;stroke-miterlimit:10;stroke-dasharray:none;stroke-opacity:1"
       id="path87880" />
    <path
       d="M 309.39301,141.91901 308.815,140.87 l -18.345,10.07501 -1.156,-2.09801 18.345,-10.075 -0.57801,-1.04899 5.89701,-0.51601 z"
       style="fill:#000000;fill-opacity:1;fill-rule:evenodd;stroke:#000000;stroke-width:0.5;stroke-linecap:butt;stroke-linejoin:miter;stroke-miterlimit:10;stroke-dasharray:none;stroke-opacity:1"
       id="path87882" />
    <text
       xml:space="preserve"
       transform="matrix(1,0,0,-1,178.08099,166.88901)"
       style="font-style:italic;font-variant:normal;font-size:8px;font-family:Times;-inkscape-font-specification:Times-Italic;writing-mode:lr-tb;fill:#000000;fill-opacity:1;fill-rule:nonzero;stroke:none"
       id="text87886"><tspan
         x="0"
         y="0"
         id="tspan87884">d</tspan></text>
    <text
       xml:space="preserve"
       transform="matrix(1,0,0,-1,182.08099,166.88901)"
       style="font-style:italic;font-variant:normal;font-weight:bold;font-size:8px;font-family:Times;-inkscape-font-specification:Times-BoldItalic;writing-mode:lr-tb;fill:#000000;fill-opacity:1;fill-rule:nonzero;stroke:none"
       id="text87890"><tspan
         x="0"
         y="0"
         id="tspan87888">X</tspan></text>
    <text
       xml:space="preserve"
       transform="matrix(1,0,0,-1,304.61611,144.82421)"
       style="font-style:italic;font-variant:normal;font-size:8px;font-family:Times;-inkscape-font-specification:Times-Italic;writing-mode:lr-tb;fill:#000000;fill-opacity:1;fill-rule:nonzero;stroke:none"
       id="text87894"><tspan
         x="0"
         y="0"
         id="tspan87892">d</tspan></text>
    <text
       xml:space="preserve"
       transform="matrix(1,0,0,-1,308.61611,144.82421)"
       style="font-style:italic;font-variant:normal;font-weight:bold;font-size:8px;font-family:Times;-inkscape-font-specification:Times-BoldItalic;writing-mode:lr-tb;fill:#000000;fill-opacity:1;fill-rule:nonzero;stroke:none"
       id="text87898"><tspan
         x="0"
         y="0"
         id="tspan87896">x</tspan></text>
    <text
       xml:space="preserve"
       transform="matrix(1,0,0,-1,314.61611,144.82421)"
       style="font-variant:normal;font-weight:normal;font-size:8px;font-family:Symbol;-inkscape-font-specification:Symbol;writing-mode:lr-tb;fill:#000000;fill-opacity:1;fill-rule:nonzero;stroke:none"
       id="text87902"><tspan
         x="0"
         y="0"
         id="tspan87900">=</tspan></text>
    <text
       xml:space="preserve"
       transform="matrix(1,0,0,-1,321.00811,144.82421)"
       style="font-style:italic;font-variant:normal;font-weight:bold;font-size:8px;font-family:Times;-inkscape-font-specification:Times-BoldItalic;writing-mode:lr-tb;fill:#000000;fill-opacity:1;fill-rule:nonzero;stroke:none"
       id="text87906"><tspan
         x="0"
         y="0"
         id="tspan87904">F</tspan></text>
    <text
       xml:space="preserve"
       transform="matrix(1,0,0,-1,327.14411,144.82421)"
       style="font-variant:normal;font-weight:normal;font-size:8px;font-family:Symbol;-inkscape-font-specification:Symbol;writing-mode:lr-tb;fill:#000000;fill-opacity:1;fill-rule:nonzero;stroke:none"
       id="text87910"><tspan
         x="0"
         y="0"
         id="tspan87908">.</tspan></text>
    <text
       xml:space="preserve"
       transform="matrix(1,0,0,-1,331.14411,144.82421)"
       style="font-style:italic;font-variant:normal;font-size:8px;font-family:Times;-inkscape-font-specification:Times-Italic;writing-mode:lr-tb;fill:#000000;fill-opacity:1;fill-rule:nonzero;stroke:none"
       id="text87914"><tspan
         x="0"
         y="0"
         id="tspan87912">d</tspan></text>
    <text
       xml:space="preserve"
       transform="matrix(1,0,0,-1,335.14411,144.82421)"
       style="font-style:italic;font-variant:normal;font-weight:bold;font-size:8px;font-family:Times;-inkscape-font-specification:Times-BoldItalic;writing-mode:lr-tb;fill:#000000;fill-opacity:1;fill-rule:nonzero;stroke:none"
       id="text87918"><tspan
         x="0"
         y="0"
         id="tspan87916">X</tspan></text>
    <text
       xml:space="preserve"
       transform="matrix(1,0,0,-1,158.97531,207.14749)"
       style="font-style:italic;font-variant:normal;font-size:8px;font-family:Times;-inkscape-font-specification:Times-Italic;writing-mode:lr-tb;fill:#000000;fill-opacity:1;fill-rule:nonzero;stroke:none"
       id="text87922"><tspan
         sodipodi:role="line"
         id="tspan87920"
         x="0"
         y="0">Configuração Inicial</tspan></text>
    <text
       xml:space="preserve"
       transform="scale(1,-1)"
       style="font-style:italic;font-variant:normal;font-size:8px;font-family:Times;-inkscape-font-specification:Times-Italic;writing-mode:lr-tb;fill:#000000;fill-opacity:1;fill-rule:nonzero;stroke:none"
       id="text87922-6"
       x="279.36035"
       y="-207.87315"><tspan
         sodipodi:role="line"
         id="tspan87920-2"
         x="279.36035"
         y="-207.87315">Configuração Atual</tspan></text>
    <text
       xml:space="preserve"
       transform="matrix(1,0,0,-1,207.33123,159.19549)"
       style="font-style:italic;font-variant:normal;font-weight:bold;font-size:8px;font-family:Times;-inkscape-font-specification:Times-BoldItalic;writing-mode:lr-tb;fill:#000000;fill-opacity:1;fill-rule:nonzero;stroke:none"
       id="text87926"><tspan
         x="0"
         y="0"
         id="tspan87924">X</tspan></text>
    <text
       xml:space="preserve"
       transform="matrix(1,0,0,-1,214.66731,159.19549)"
       style="font-variant:normal;font-weight:normal;font-size:8px;font-family:Symbol;-inkscape-font-specification:Symbol;writing-mode:lr-tb;fill:#000000;fill-opacity:1;fill-rule:nonzero;stroke:none"
       id="text87930"><tspan
         x="0"
         y="0"
         id="tspan87928">+</tspan></text>
    <text
       xml:space="preserve"
       transform="matrix(1,0,0,-1,221.05931,159.19549)"
       style="font-style:italic;font-variant:normal;font-size:8px;font-family:Times;-inkscape-font-specification:Times-Italic;writing-mode:lr-tb;fill:#000000;fill-opacity:1;fill-rule:nonzero;stroke:none"
       id="text87934"><tspan
         x="0"
         y="0"
         id="tspan87932">d</tspan></text>
    <text
       xml:space="preserve"
       transform="matrix(1,0,0,-1,225.05931,159.19549)"
       style="font-style:italic;font-variant:normal;font-weight:bold;font-size:8px;font-family:Times;-inkscape-font-specification:Times-BoldItalic;writing-mode:lr-tb;fill:#000000;fill-opacity:1;fill-rule:nonzero;stroke:none"
       id="text87938"><tspan
         x="0"
         y="0"
         id="tspan87936">X</tspan></text>
    <path
       d="m 122.991,112.392 78.38,48.42"
       style="fill:none;stroke:#000000;stroke-width:0.5;stroke-linecap:round;stroke-linejoin:round;stroke-miterlimit:10;stroke-dasharray:none;stroke-opacity:1"
       id="path87940" />
    <path
       d="m 201.282,159.071 3.848,4.084 -5.375,-1.61299 1.527,-2.47101"
       style="fill:#000000;fill-opacity:1;fill-rule:nonzero;stroke:none"
       id="path87942" />
    <text
       xml:space="preserve"
       transform="matrix(1,0,0,-1,320.16,130.452)"
       style="font-style:italic;font-variant:normal;font-weight:bold;font-size:8px;font-family:Times;-inkscape-font-specification:Times-BoldItalic;writing-mode:lr-tb;fill:#000000;fill-opacity:1;fill-rule:nonzero;stroke:none"
       id="text87946"><tspan
         x="0"
         y="0"
         id="tspan87944">x</tspan></text>
    <text
       xml:space="preserve"
       transform="matrix(1,0,0,-1,326.16,130.452)"
       style="font-variant:normal;font-weight:normal;font-size:8px;font-family:Symbol;-inkscape-font-specification:Symbol;writing-mode:lr-tb;fill:#000000;fill-opacity:1;fill-rule:nonzero;stroke:none"
       id="text87950"><tspan
         x="0"
         y="0"
         id="tspan87948">+</tspan></text>
    <text
       xml:space="preserve"
       transform="matrix(1,0,0,-1,332.552,130.452)"
       style="font-style:italic;font-variant:normal;font-size:8px;font-family:Times;-inkscape-font-specification:Times-Italic;writing-mode:lr-tb;fill:#000000;fill-opacity:1;fill-rule:nonzero;stroke:none"
       id="text87954"><tspan
         x="0"
         y="0"
         id="tspan87952">d</tspan></text>
    <text
       xml:space="preserve"
       transform="matrix(1,0,0,-1,336.552,130.452)"
       style="font-style:italic;font-variant:normal;font-weight:bold;font-size:8px;font-family:Times;-inkscape-font-specification:Times-BoldItalic;writing-mode:lr-tb;fill:#000000;fill-opacity:1;fill-rule:nonzero;stroke:none"
       id="text87958"><tspan
         x="0"
         y="0"
         id="tspan87956">x</tspan></text>
    <path
       d="M 122.991,112.392 313.435,133.56"
       style="fill:none;stroke:#000000;stroke-width:0.5;stroke-linecap:round;stroke-linejoin:round;stroke-miterlimit:10;stroke-dasharray:none;stroke-opacity:1"
       id="path87960" />
    <path
       d="m 312.60899,132.02499 5.22602,2.04201 -5.54702,0.845 0.321,-2.88701"
       style="fill:#000000;fill-opacity:1;fill-rule:nonzero;stroke:none"
       id="path87962" />
  </g>
</svg>
